<?xml version="1.0" encoding="UTF-8" standalone="no" ?>
<!DOCTYPE svg PUBLIC "-//W3C//DTD SVG 1.1//EN" "http://www.w3.org/Graphics/SVG/1.1/DTD/svg11.dtd">
<svg xmlns="http://www.w3.org/2000/svg" xmlns:xlink="http://www.w3.org/1999/xlink" version="1.1" width="1080" height="300" viewBox="0 0 1080 300" xml:space="preserve">
<desc>Created with Fabric.js 5.2.4</desc>
<defs>
</defs>
<rect x="0" y="0" width="100%" height="100%" fill="transparent"></rect>
<g transform="matrix(1 0 0 1 540 150)" id="2e137906-c92f-4a0e-9a20-3eaa0120d98d"  >
<rect style="stroke: none; stroke-width: 1; stroke-dasharray: none; stroke-linecap: butt; stroke-dashoffset: 0; stroke-linejoin: miter; stroke-miterlimit: 4; fill: rgb(255,255,255); fill-rule: nonzero; opacity: 1; visibility: hidden;" vector-effect="non-scaling-stroke"  x="-540" y="-150" rx="0" ry="0" width="1080" height="300" />
</g>
<g transform="matrix(Infinity NaN NaN Infinity 0 0)" id="c1dc759d-6411-4a6a-8d0f-8f2d3b62e569"  >
</g>
<g transform="matrix(0.92 0 0 0.92 540 150)"  >
<path style="stroke: rgb(0,0,0); stroke-width: 0; stroke-dasharray: none; stroke-linecap: butt; stroke-dashoffset: 0; stroke-linejoin: miter; stroke-miterlimit: 4; fill: rgb(37,211,102); fill-rule: nonzero; opacity: 1;" vector-effect="non-scaling-stroke"  transform=" translate(-571.74, -132.86)" d="M 1116.99 161.875 C 1116.279 165.457 1115.055 168.584 1113.327 171.269 C 1111.602047815669 173.95087893128095 1109.2702004801283 176.18920572581925 1106.52 177.803 C 1103.723 179.476 1100.23 180.316 1096.056 180.316 C 1091.997 180.316 1088.537 179.476 1085.676 177.803 C 1082.809 176.143 1080.5169999999998 173.956 1078.781 171.269 C 1077.061 168.584 1075.8029999999999 165.457 1075.024 161.875 C 1074.2494781772693 158.29076598939025 1073.8605990683282 154.63396140290044 1073.8639999999998 150.96700000000004 C 1073.8639999999998 147.13500000000002 1074.2289999999998 143.437 1074.9399999999998 139.865 C 1075.6549999999997 136.28400000000002 1076.8809999999999 133.12400000000002 1078.6079999999997 130.365 C 1080.3359999999998 127.62800000000001 1082.6069999999997 125.39200000000001 1085.4089999999997 123.665 C 1088.2039999999997 121.935 1091.6959999999997 121.05900000000001 1095.8769999999997 121.05900000000001 C 1099.9319999999998 121.05900000000001 1103.3589999999997 121.93500000000002 1106.1589999999997 123.665 C 1108.9689999999996 125.39200000000001 1111.2599999999998 127.652 1113.0519999999997 130.46 C 1114.8489999999997 133.267 1116.1309999999996 136.46300000000002 1116.9019999999996 140.037 C 1117.6832436127652 143.62767847190383 1118.0738482253244 147.2923208884461 1118.0669999999996 150.96699999999998 C 1118.0669999999996 154.655 1117.7039999999995 158.3 1116.9889999999996 161.875 M 1140.9689999999996 132.787 C 1139.2969999999996 126.76700000000001 1136.7349999999997 121.483 1133.2719999999997 116.947 C 1129.8119999999997 112.415 1125.4669999999996 108.771 1120.2159999999997 106.031 C 1114.9609999999996 103.281 1108.6929999999998 101.91600000000001 1101.4169999999997 101.91600000000001 C 1095.6969999999997 101.91600000000001 1090.4439999999997 103.04400000000001 1085.6759999999997 105.31200000000001 C 1080.9029999999998 107.58200000000001 1076.9659999999997 111.22200000000001 1073.8639999999998 116.233 L 1073.514 116.233 L 1073.514 104.415 L 1049.3519999999999 104.415 L 1049.3519999999999 229.36 L 1074.7569999999998 229.36 L 1074.7569999999998 185.507 L 1075.1169999999997 185.507 C 1078.2189999999998 190.046 1082.1929999999998 193.471 1087.0189999999998 195.791 C 1091.8469999999998 198.118 1097.1319999999998 199.288 1102.8599999999997 199.288 C 1109.6529999999996 199.288 1115.5869999999998 197.966 1120.6639999999998 195.347 C 1125.7269999999999 192.726 1129.9709999999998 189.20000000000002 1133.3639999999998 184.78300000000002 C 1136.7719999999997 180.366 1139.2969999999998 175.3 1140.9689999999998 169.573 C 1142.648 163.842 1143.4769999999999 157.876 1143.4769999999999 151.673 C 1143.4769999999999 145.11 1142.648 138.818 1140.9689999999998 132.786 M 1015.7169999999999 161.874 C 1014.9949999999999 165.456 1013.7679999999999 168.583 1012.0439999999999 171.268 C 1010.3139999999999 173.955 1008.0449999999998 176.142 1005.2339999999999 177.802 C 1002.439 179.475 998.944 180.315 994.7719999999999 180.315 C 990.7109999999999 180.315 987.265 179.475 984.4019999999999 177.802 C 981.5329999999999 176.142 979.2399999999999 173.95499999999998 977.5079999999999 171.268 C 975.7779999999999 168.583 974.5269999999999 165.456 973.7489999999999 161.874 C 972.9735020286539 158.28997593701706 972.5856060656491 154.63295850879257 972.5919999999999 150.966 C 972.5919999999999 147.13400000000001 972.9399999999998 143.436 973.6549999999999 139.864 C 974.3799999999999 136.28300000000002 975.5949999999999 133.123 977.3309999999999 130.364 C 979.0489999999999 127.62700000000001 981.3229999999999 125.391 984.1349999999999 123.664 C 986.9329999999999 121.934 990.4129999999999 121.058 994.5959999999999 121.058 C 998.6459999999998 121.058 1002.0889999999999 121.93400000000001 1004.8839999999999 123.664 C 1007.6713573826333 125.37066617520279 1010.0288010178858 127.69560514494744 1011.7739999999999 130.45899999999997 C 1013.5599999999998 133.266 1014.8409999999999 136.462 1015.6199999999999 140.036 C 1016.3966309195073 143.62728089701545 1016.7845308272537 147.29171131332282 1016.7769999999999 150.966 C 1016.7826458408308 154.62798285006687 1016.4275986706006 158.2816192018324 1015.717 161.874 M 1031.993 116.946 C 1028.539 112.414 1024.1799999999998 108.77 1018.929 106.03 C 1013.677 103.28 1007.42 101.915 1000.1469999999999 101.915 C 994.4129999999999 101.915 989.1679999999999 103.043 984.401 105.311 C 979.616 107.581 975.6909999999999 111.221 972.592 116.232 L 972.227 116.232 L 972.227 104.414 L 948.063 104.414 L 948.063 229.36 L 973.489 229.36 L 973.489 185.507 L 973.8330000000001 185.507 C 976.9320000000001 190.046 980.9090000000001 193.471 985.744 195.791 C 990.5640000000001 198.118 995.847 199.288 1001.5740000000001 199.288 C 1008.379 199.288 1014.3090000000001 197.966 1019.3770000000001 195.347 C 1024.448 192.726 1028.684 189.20000000000002 1032.084 184.78300000000002 C 1035.488 180.366 1038.0120000000002 175.3 1039.694 169.573 C 1041.3519999999999 163.842 1042.197 157.876 1042.197 151.673 C 1042.197 145.11 1041.3519999999999 138.818 1039.695 132.786 C 1038.012 126.766 1035.453 121.482 1031.993 116.946 M 864.865 147.55599999999998 L 881.5070000000001 100.65599999999998 L 881.8610000000001 100.65599999999998 L 897.969 147.55599999999998 z M 867.545 69.15399999999998 L 819.2349999999999 196.956 L 847.5079999999999 196.956 L 857.5229999999999 168.495 L 905.3069999999999 168.495 L 914.9609999999999 196.95600000000002 L 944.1359999999999 196.95600000000002 L 896.363 69.155 z M 817.083 156.416 C 815.4341749545912 153.51750368897834 813.1754378713277 151.0117385621677 810.463 149.072 C 807.7199999999999 147.11 804.581 145.524 801.069 144.326 C 797.5122964995895 143.13161464503804 793.8969222427118 142.1196302703285 790.2369999999999 141.29399999999995 C 786.7308990529892 140.47108157498454 783.2142698171734 139.69368282838076 779.6879999999995 138.96199999999982 C 776.228 138.242 773.149 137.438 770.4639999999999 136.548 C 767.7829999999999 135.651 765.6139999999999 134.495 763.9409999999999 133.051 C 762.2649999999999 131.623 761.439 129.77599999999998 761.439 127.50599999999999 C 761.439 125.59599999999999 761.904 124.07599999999998 762.8639999999999 122.93999999999998 C 763.8131809395268 121.8174718938386 765.0080344133801 120.92851733339447 766.3559999999999 120.34199999999998 C 767.7309999999999 119.74999999999999 769.2409999999999 119.36399999999999 770.9159999999998 119.17899999999999 C 772.4610745077385 119.01130354572108 774.0138613695335 118.9245183814763 775.5679999999999 118.91899999999998 C 780.1039999999998 118.91899999999998 784.0409999999998 119.78199999999998 787.3879999999999 121.51099999999998 C 790.718 123.24099999999999 792.5729999999999 126.55399999999999 792.925 131.44299999999998 L 817.083 131.44299999999998 C 816.605 125.71899999999998 815.1469999999999 120.97799999999998 812.699 117.20799999999998 C 810.257 113.45499999999998 807.18 110.43999999999998 803.4849999999999 108.17599999999999 C 799.7929999999999 105.90799999999999 795.5849999999999 104.29999999999998 790.8649999999999 103.34299999999999 C 786.1529999999999 102.38699999999999 781.2959999999999 101.91499999999999 776.2929999999999 101.91499999999999 C 771.2749999999999 101.91499999999999 766.3799999999999 102.36299999999999 761.6199999999999 103.24799999999999 C 756.8389999999999 104.148 752.5449999999998 105.70599999999999 748.733 107.90799999999999 C 744.911 110.11499999999998 741.8439999999999 113.12299999999999 739.512 116.94599999999998 C 737.1819999999999 120.76299999999998 736.02 125.66199999999998 736.02 131.623 C 736.02 135.67999999999998 736.8629999999999 139.118 738.535 141.91899999999998 C 740.189 144.72699999999998 742.408 147.04399999999998 745.141 148.896 C 747.8929999999999 150.74599999999998 751.0269999999999 152.243 754.544 153.368 C 758.1036925026431 154.51954167030613 761.7141207778684 155.50790475267374 765.364 156.32999999999998 C 774.44 158.242 781.5110000000001 160.14399999999998 786.576 162.05999999999997 C 791.6460000000001 163.96599999999998 794.181 166.82799999999997 794.181 170.65099999999998 C 794.181 172.91799999999998 793.649 174.78699999999998 792.5730000000001 176.28099999999998 C 791.5157414264079 177.76066562326378 790.1403876957211 178.9846450178775 788.5480000000001 179.86299999999997 C 786.9280000000001 180.76199999999997 785.1380000000001 181.42199999999997 783.1780000000001 181.82999999999998 C 781.2090000000001 182.25099999999998 779.3250000000002 182.462 777.5380000000001 182.462 C 775.0320000000002 182.462 772.6180000000002 182.16 770.2980000000001 181.566 C 767.9650000000001 180.968 765.9080000000001 180.042 764.1200000000001 178.788 C 762.3320000000001 177.538 760.8630000000002 175.93 759.7320000000001 173.955 C 758.6070000000001 171.985 758.0280000000001 169.638 758.0280000000001 166.88500000000002 L 733.8730000000002 166.88500000000002 C 734.1170000000002 173.091 735.5150000000002 178.25500000000002 738.0870000000002 182.37 C 740.6400000000002 186.487 743.9190000000002 189.79500000000002 747.9230000000002 192.306 C 751.9170000000003 194.80700000000002 756.4850000000002 196.602 761.6200000000002 197.679 C 766.7945443071281 198.75612420949432 772.0665424943273 199.29565618771647 777.3520000000002 199.28900000000002 C 782.5515468030425 199.29053847490803 787.738710143544 198.78210469490668 792.8390000000002 197.77100000000002 C 797.9080000000001 196.75400000000002 802.4120000000001 194.99200000000002 806.3490000000002 192.48100000000002 C 810.2950000000002 189.98100000000002 813.4720000000002 186.67000000000002 815.9250000000002 182.55 C 818.3640000000001 178.42700000000002 819.5850000000002 173.327 819.5850000000002 167.24 C 819.5850000000002 162.93800000000002 818.7520000000002 159.339 817.0830000000002 156.416 M 712.049 76.675 L 686.635 76.675 L 686.635 104.41499999999999 L 671.252 104.41499999999999 L 671.252 121.41699999999999 L 686.635 121.41699999999999 L 686.635 176.015 C 686.635 180.67499999999998 687.419 184.42899999999997 688.9639999999999 187.291 C 690.5169999999999 190.151 692.632 192.37199999999999 695.314 193.91899999999998 C 697.9989999999999 195.47099999999998 701.103 196.511 704.6229999999999 197.04799999999997 C 708.132 197.58099999999996 711.876 197.85199999999998 715.804 197.85199999999998 C 718.319 197.85199999999998 720.876 197.78799999999998 723.505 197.67999999999998 C 726.124 197.557 728.508 197.325 730.66 196.95699999999997 L 730.66 177.26499999999996 C 729.4170899448386 177.518687824386 728.1602106864599 177.69833741020102 726.896 177.80299999999997 C 725.5285813317071 177.92798500067568 724.1561176624658 177.98971750220974 722.7829999999999 177.98799999999997 C 718.4919999999998 177.98799999999997 715.6249999999999 177.26499999999996 714.1909999999999 175.83499999999998 C 712.7669999999999 174.40699999999998 712.0489999999999 171.54099999999997 712.0489999999999 167.24099999999999 L 712.0489999999999 121.41699999999999 L 730.6599999999999 121.41699999999999 L 730.6599999999999 104.41499999999999 L 712.0499999999998 104.41499999999999 z M 639.2189999999999 161.152 C 639.2189999999999 162.59599999999998 639.073 164.504 638.771 166.887 C 638.4749999999999 169.28 637.668 171.628 636.357 173.956 C 635.044 176.283 633.009 178.289 630.273 179.952 C 627.5310000000001 181.628 623.653 182.462 618.6370000000001 182.462 C 616.615 182.462 614.643 182.284 612.735 181.91899999999998 C 610.823 181.56699999999998 609.157 180.93499999999997 607.725 180.04299999999998 C 606.296 179.14799999999997 605.159 177.92399999999998 604.323 176.37199999999999 C 603.4929999999999 174.82199999999997 603.071 172.91899999999998 603.071 170.652 C 603.071 168.267 603.493 166.285 604.323 164.742 C 605.1298119207057 163.22909283568987 606.2623833319107 161.91413507539477 607.639 160.892 C 609.004 159.879 610.617 159.075 612.467 158.472 C 614.3143263982058 157.8770181462231 616.1974140880466 157.3993992394348 618.105 157.042 C 620.128 156.692 622.1610000000001 156.38400000000001 624.184 156.147 C 626.1334099025005 155.92204860356932 628.0737570410125 155.62450869510226 630.001 155.255 C 631.7599538649829 154.91975624816646 633.4950144710734 154.46945557488766 635.1949999999999 153.90699999999998 C 636.805 153.36899999999997 638.1429999999999 152.63299999999998 639.2189999999999 151.67299999999997 z M 664.627 176.37199999999999 L 664.627 128.22699999999998 C 664.627 122.60899999999998 663.38 118.10899999999998 660.867 114.71299999999998 C 658.367 111.30899999999998 655.144 108.65699999999998 651.212 106.74699999999999 C 647.269 104.83899999999998 642.912 103.55299999999998 638.1419999999999 102.89899999999999 C 633.4589323142043 102.249390535302 628.7369055442482 101.9209569178912 624.0089999999999 101.91599999999998 C 618.8829999999999 101.91599999999998 613.7769999999999 102.41899999999998 608.7149999999999 103.43599999999998 C 603.632 104.44899999999998 599.079 106.15299999999998 595.0199999999999 108.53499999999998 C 590.9972340352867 110.88596538816546 587.569984867582 114.13186051644499 585.0039999999999 118.021 C 582.3709999999999 121.95899999999999 580.8809999999999 126.91199999999999 580.5249999999999 132.88 L 605.9319999999999 132.88 C 606.4089999999999 127.865 608.0869999999999 124.283 610.9509999999999 122.137 C 613.8119999999999 119.988 617.7439999999999 118.92 622.7599999999999 118.92 C 625.0229999999999 118.92 627.1369999999998 119.07000000000001 629.1099999999999 119.365 C 631.0749999999999 119.667 632.8069999999999 120.255 634.3 121.155 C 635.793 122.049 636.9849999999999 123.299 637.876 124.915 C 638.771 126.524 639.2189999999999 128.707 639.2189999999999 131.44400000000002 C 639.337 134.07700000000003 638.559 136.06400000000002 636.896 137.43900000000002 C 635.2199999999999 138.81900000000002 632.957 139.865 630.093 140.57200000000003 C 627.2289999999999 141.29500000000004 623.948 141.83300000000003 620.2479999999999 142.18000000000004 C 616.5479999999999 142.54500000000004 612.7929999999999 143.03200000000004 608.9799999999999 143.62000000000003 C 605.152353888702 144.21933225558936 601.3600980221535 145.02618810325203 597.6199999999999 146.037 C 593.8629999999999 147.04500000000004 590.512 148.57500000000005 587.5929999999998 150.59500000000003 C 584.6679999999999 152.63300000000004 582.2839999999999 155.34400000000002 580.4289999999999 158.747 C 578.5839999999998 162.149 577.6609999999998 166.479 577.6609999999998 171.723 C 577.6609999999998 176.495 578.4649999999998 180.61100000000002 580.0759999999998 184.068 C 581.6859999999998 187.538 583.9209999999998 190.39100000000002 586.7879999999998 192.661 C 589.6529999999998 194.929 592.9909999999998 196.603 596.8079999999998 197.68 C 600.6199999999998 198.75 604.7379999999997 199.29000000000002 609.1579999999998 199.29000000000002 C 614.8551854451682 199.29148858788224 620.5211143201052 198.44832234479102 625.9709999999998 196.788 C 631.4609999999998 195.10500000000002 636.2389999999998 192.192 640.2949999999997 188.00900000000001 C 640.4129999999998 189.56 640.6209999999998 191.08700000000002 640.9159999999997 192.57500000000002 C 641.2149999999997 194.06000000000003 641.6059999999998 195.531 642.0829999999997 196.95700000000002 L 667.8529999999997 196.95700000000002 C 666.6609999999997 195.05900000000003 665.8199999999997 192.19200000000004 665.3479999999997 188.36700000000002 C 664.8639999999997 184.55100000000002 664.6269999999997 180.56000000000003 664.6269999999997 176.372 M 559.9439999999997 112.37900000000002 C 557.4429999999998 109.09600000000002 554.0109999999997 106.53500000000003 549.6629999999998 104.68000000000002 C 545.3029999999998 102.84000000000002 539.7249999999998 101.91600000000003 532.9289999999997 101.91600000000003 C 528.1559999999997 101.91600000000003 523.2669999999997 103.13500000000002 518.2509999999997 105.58600000000003 C 513.2429999999997 108.02600000000002 509.1249999999998 111.93700000000003 505.90699999999975 117.31100000000002 L 505.36899999999974 117.31100000000002 L 505.36899999999974 69.155 L 479.9589999999997 69.155 L 479.9589999999997 196.957 L 505.36899999999974 196.957 L 505.36899999999974 148.45 C 505.36899999999974 139.02499999999998 506.91899999999976 132.25699999999998 510.02299999999974 128.13299999999998 C 513.1209999999998 124.02099999999999 518.1319999999997 121.95999999999998 525.0549999999997 121.95999999999998 C 531.1359999999997 121.95999999999998 535.3719999999997 123.83799999999998 537.7589999999997 127.60199999999998 C 540.1449999999996 131.35699999999997 541.3369999999996 137.05799999999996 541.3369999999996 144.69199999999998 L 541.3369999999996 196.95799999999997 L 566.7489999999997 196.95799999999997 L 566.7489999999997 140.03799999999995 C 566.7489999999997 134.31399999999996 566.2369999999997 129.09599999999995 565.2269999999996 124.37299999999996 C 564.2119999999996 119.66799999999996 562.4519999999997 115.66599999999997 559.9439999999996 112.37999999999997 M 425.7389999999996 157.22399999999996 L 425.3849999999996 157.22399999999996 L 403.5549999999996 69.15599999999996 L 377.2489999999996 69.15599999999996 L 355.0569999999996 156.14799999999997 L 354.7009999999996 156.14799999999997 L 334.48 69.155 L 306.39000000000004 69.155 L 340.208 196.957 L 368.663 196.957 L 389.952 109.964 L 390.311 109.964 L 411.96299999999997 196.957 L 439.87899999999996 196.957 L 474.23699999999997 69.15499999999999 L 446.681 69.15499999999999 z M 192.80499999999958 159.23399999999995 C 189.5159999999996 157.58799999999997 173.33999999999958 149.62899999999996 170.3249999999996 148.53199999999995 C 167.3089999999996 147.43399999999994 165.1159999999996 146.88399999999996 162.9229999999996 150.17699999999996 C 160.72899999999962 153.47199999999995 154.4249999999996 160.88199999999998 152.5049999999996 163.07599999999996 C 150.5869999999996 165.27399999999997 148.6679999999996 165.54899999999998 145.3769999999996 163.90199999999996 C 142.08799999999962 162.25399999999996 131.48699999999963 158.77999999999997 118.91999999999962 147.57199999999995 C 109.13999999999962 138.84899999999993 102.53699999999962 128.07299999999995 100.61899999999962 124.77799999999995 C 98.69899999999961 121.48799999999994 100.41299999999961 119.70799999999994 102.06099999999961 118.06599999999995 C 103.54099999999961 116.59299999999995 105.35099999999962 114.22199999999995 106.99599999999961 112.30399999999995 C 108.63999999999962 110.37999999999994 109.18899999999961 109.00899999999994 110.28599999999962 106.81199999999994 C 111.38299999999961 104.61799999999994 110.83299999999961 102.69399999999995 110.01199999999962 101.04899999999994 C 109.18899999999962 99.40099999999994 102.60899999999961 83.20799999999994 99.86699999999962 76.62199999999993 C 97.19699999999962 70.20799999999993 94.48499999999962 71.07399999999993 92.46499999999962 70.97599999999993 C 90.54899999999962 70.87699999999992 88.35199999999962 70.85699999999993 86.15999999999963 70.85699999999993 C 83.96699999999963 70.85699999999993 80.40299999999962 71.68399999999993 77.38699999999963 74.97399999999993 C 74.37199999999963 78.26799999999993 65.87199999999963 86.22799999999994 65.87199999999963 102.41999999999993 C 65.87199999999963 118.61299999999993 77.66199999999964 134.25799999999992 79.30699999999963 136.45599999999993 C 80.95099999999964 138.64899999999994 102.50499999999963 171.88199999999995 135.50799999999964 186.13199999999995 C 143.35799999999963 189.52099999999996 149.48699999999963 191.54499999999996 154.26399999999964 193.06199999999995 C 162.14499999999964 195.56499999999994 169.31699999999964 195.21199999999996 174.98499999999964 194.36599999999996 C 181.30699999999965 193.42099999999996 194.45099999999965 186.40599999999995 197.19199999999964 178.72099999999995 C 199.93299999999965 171.03599999999994 199.93299999999965 164.45099999999994 199.11099999999965 163.07599999999994 C 198.28899999999965 161.70499999999993 196.09599999999966 160.88199999999995 192.80499999999964 159.23399999999992 M 132.77699999999965 241.19799999999992 L 132.73199999999966 241.19799999999992 C 113.09499999999966 241.19199999999992 93.83299999999966 235.91299999999993 77.03099999999966 225.94199999999992 L 73.03499999999967 223.57299999999992 L 31.614999999999668 234.43699999999993 L 42.670999999999665 194.05399999999992 L 40.067999999999664 189.91299999999993 C 29.112999999999666 172.48799999999991 23.327999999999665 152.34799999999993 23.335999999999665 131.6719999999999 C 23.36 71.33 72.455 22.24 132.82 22.24 C 162.04999999999998 22.25 189.528 33.65 210.19 54.334999999999994 C 230.853 75.02 242.225 102.517 242.215 131.75900000000001 C 242.189 192.103 193.096 241.197 132.777 241.197 M 132.775 0 C 60.2 0 1.135 59.064 1.105 131.66 C 1.096 154.868 7.159000000000001 177.521 18.68 197.485 L 0 265.72 L 69.801 247.41200000000003 C 89.03200000000001 257.90000000000003 110.685 263.42600000000004 132.724 263.434 L 132.777 263.434 C 205.344 263.434 264.416 204.36600000000004 264.445 131.76600000000002 C 264.459 96.58800000000002 250.77599999999998 63.50400000000002 225.916 38.61700000000002 C 201.057 13.729 167.997 0.017 132.775 0" stroke-linecap="round" />
</g>
<g transform="matrix(NaN NaN NaN NaN 0 0)"  >
<g style=""   >
</g>
</g>
</svg>