<?xml version="1.0" encoding="UTF-8"?>
<svg id="Layer_1" data-name="Layer 1" xmlns="http://www.w3.org/2000/svg" xmlns:xlink="http://www.w3.org/1999/xlink" viewBox="0 0 924.42 730.93">
  <defs>
    <style>
      .cls-1 {
        fill: #16743f;
        stroke: #16743f;
        stroke-miterlimit: 10;
        stroke-width: 7px;
      }

      .cls-2 {
        fill: url(#linear-gradient);
      }
    </style>
    <linearGradient id="linear-gradient" x1="144.58" y1="755.96" x2="148.2" y2="755.93" gradientTransform="translate(-36909.45 152960.14) scale(255.29 -201.86)" gradientUnits="userSpaceOnUse">
      <stop offset="0" stop-color="#0b6e3d"/>
      <stop offset="1" stop-color="#a9d054"/>
    </linearGradient>
  </defs>
  <g id="Group_5" data-name="Group 5">
    <path class="cls-1" d="m10.45,259.55c-1,0-2-.38-2.77-1.15-1.53-1.53-1.53-4.01,0-5.54l35.87-35.87c1.53-1.53,4.01-1.53,5.54,0,1.53,1.53,1.53,4.01,0,5.54l-35.87,35.87c-.76.76-1.77,1.15-2.77,1.15Z"/>
    <path class="cls-1" d="m10.59,351.22c-1,0-2-.38-2.76-1.15-1.52-1.53-1.52-4.01,0-5.54l91.38-91.67c1.52-1.53,3.99-1.53,5.52,0,1.52,1.53,1.52,4.01,0,5.54L13.35,350.07c-.76.76-1.76,1.15-2.76,1.15Z"/>
    <path class="cls-1" d="m42.34,407.02c-1,0-2-.38-2.77-1.15-1.53-1.53-1.53-4.01,0-5.54l59.78-59.78c1.53-1.53,4.01-1.53,5.54,0s1.53,4.01,0,5.54l-59.78,59.78c-.76.76-1.77,1.15-2.77,1.15Z"/>
    <path class="cls-1" d="m86.18,438.91c-1,0-2-.38-2.77-1.15-1.53-1.53-1.53-4.01,0-5.54l15.94-15.94c1.53-1.53,4.01-1.53,5.54,0s1.53,4.01,0,5.54l-15.94,15.94c-.76.76-1.77,1.15-2.77,1.15Z"/>
  </g>
  <path id="Intersection_1" data-name="Intersection 1" class="cls-2" d="m274.11,730.93c-100.89.04-182.7-81.72-182.74-182.61-.01-31.93,8.34-63.3,24.23-90.99C49.21,431.81,5.24,393.08.43,349.28.15,348.44,0,347.55,0,346.66v-193.49c0-.44.04-.88.11-1.32C.03,150.51,0,149.15,0,147.8,0,64.92,133.39,0,303.66,0s303.66,64.92,303.66,147.8c0,1.35-.04,2.71-.11,4.06.07.43.1.87.11,1.31v193.48c0,.91-.15,1.82-.46,2.68-.63,5.49-1.86,10.9-3.66,16.13h138.48c100.87.11,182.62,81.86,182.74,182.73,0,5.21-.22,10.37-.65,15.47l.19.19-.23.23c-7.83,88.33-77.84,158.34-166.17,166.16l-.22.22-.18-.18c-5.11.43-10.27.65-15.48.65h-467.57Zm439.78-16.14h28.73l165.68-165.67v-.93c0-8.64-.66-17.26-1.99-25.8l-192.42,192.41Zm-59.12,0h28.72l217.02-217.02c-2.24-7.04-4.95-13.93-8.11-20.61l-237.63,237.63Zm-64.49,0h34.1l257.14-257.13c-4.42-6.81-9.34-13.29-14.71-19.39l-276.53,276.52Zm-64.5,0h34.1l291.73-291.72c-6.1-5.37-12.58-10.28-19.39-14.71l-306.44,306.43Zm-418.29-166.6c.11,91.97,74.65,166.5,166.62,166.6h223.06v-333.21h-223.06c-91.98.1-166.52,74.63-166.62,166.61Zm669.22,162.91c13.69-2.94,26.95-7.61,39.47-13.89l74.52-74.52c6.28-12.52,10.95-25.78,13.89-39.47l-127.89,127.88Zm-258.07-48.28v28.72l294.07-294.06c-6.68-3.16-13.57-5.87-20.61-8.11l-273.45,273.45Zm0-64.49v34.1l248.85-248.85c-8.54-1.33-17.17-1.99-25.81-1.99h-6.3l-216.74,216.75Zm0-64.5v34.1l186.35-186.35h-34.1l-152.25,152.24Zm0-64.49v34.1l121.85-121.85h-34.1l-87.76,87.76ZM16.12,342.98l.1.28c.53,15.28,7.14,30.42,19.81,44.98,13.87,15.95,34.04,30.45,59.96,43.06,8.98,4.37,18.49,8.4,28.47,12.13,34.17-48.85,90.03-77.95,149.65-77.95h311.87c3.14-7.15,4.89-14.83,5.15-22.63.03-.06.05-.12.08-.18v-146.35c-40.37,58.35-152.32,99.29-287.54,99.29S56.49,254.66,16.12,196.3v146.68Zm502.53,54.28v41.7l57.36-57.36h-41.69l-15.66,15.66Zm0-15.21l.46-.46h-.46v.46ZM16.12,147.8c0,72.61,128.99,131.68,287.54,131.68s287.54-59.07,287.54-131.68S462.22,16.12,303.66,16.12,16.12,75.2,16.12,147.8Zm413.49,61.2L166.26,101.52c-4.12-1.69-6.1-6.39-4.41-10.52,1.69-4.12,6.39-6.1,10.52-4.41l263.34,107.5c4.15,1.6,6.22,6.27,4.62,10.42-1.6,4.15-6.27,6.22-10.42,4.62-.09-.04-.19-.07-.28-.11v-.02Z"/>
</svg>